<svg width="46" height="46" viewBox="0 0 46 46" fill="none" xmlns="http://www.w3.org/2000/svg">
<g id="Menu">
<g id="Lines">
<path id="Rectangle 2" d="M8 15C8 13.8954 8.89543 13 10 13H36C37.1046 13 38 13.8954 38 15C38 16.1046 37.1046 17 36 17H10C8.89543 17 8 16.1046 8 15Z" fill="white"/>
<path id="Rectangle 3" d="M8 23C8 21.8954 8.89543 21 10 21H36C37.1046 21 38 21.8954 38 23C38 24.1046 37.1046 25 36 25H10C8.89543 25 8 24.1046 8 23Z" fill="white"/>
<path id="Rectangle 4" d="M8 31C8 29.8954 8.89543 29 10 29H36C37.1046 29 38 29.8954 38 31C38 32.1046 37.1046 33 36 33H10C8.89543 33 8 32.1046 8 31Z" fill="white"/>
</g>
<path id="Outline" d="M0.5 8C0.5 6.59162 0.500389 5.5654 0.56646 4.75673C0.632055 3.95389 0.759887 3.40959 0.990471 2.95704C1.4219 2.11031 2.11031 1.4219 2.95704 0.990471C3.40959 0.759887 3.95389 0.632055 4.75673 0.56646C5.5654 0.500389 6.59162 0.5 8 0.5H38C39.4084 0.5 40.4346 0.500389 41.2433 0.56646C42.0461 0.632055 42.5904 0.759887 43.043 0.990471L43.27 0.544967L43.043 0.990471C43.8897 1.4219 44.5781 2.11031 45.0095 2.95704C45.2401 3.40959 45.3679 3.95389 45.4335 4.75673C45.4996 5.5654 45.5 6.59162 45.5 8V38C45.5 39.4084 45.4996 40.4346 45.4335 41.2433C45.3679 42.0461 45.2401 42.5904 45.0095 43.043C44.5781 43.8897 43.8897 44.5781 43.043 45.0095C42.5904 45.2401 42.0461 45.3679 41.2433 45.4335C40.4346 45.4996 39.4084 45.5 38 45.5H8C6.59162 45.5 5.5654 45.4996 4.75673 45.4335C3.95389 45.3679 3.40959 45.2401 2.95704 45.0095C2.11031 44.5781 1.4219 43.8897 0.990471 43.043L0.544967 43.27L0.990471 43.043C0.759887 42.5904 0.632055 42.0461 0.56646 41.2433C0.500389 40.4346 0.5 39.4084 0.5 38V8Z" stroke="white"/>
</g>
</svg>
