<svg xmlns="http://www.w3.org/2000/svg" fill="#545454" height="24" viewBox="0 -960 960 960" width="24"><path d="M480-420q-57.231 0-105.423 31.577-48.193 31.577-72.423 83.808h355.692q-24.23-52.231-72.423-83.808Q537.231-420 480-420Zm-171.077-76.923 44-42 42 42L420-522l-42-42 42-44-25.077-25.077-42 42-44-42L283.846-608l42 44-42 42 25.077 25.077Zm256.154 0 42-42 44 42L676.154-522l-42-42 42-44-25.077-25.077-44 42-42-42L540-608l42 44-42 42 25.077 25.077ZM480.134-120q-74.673 0-140.41-28.339-65.737-28.34-114.365-76.922-48.627-48.582-76.993-114.257Q120-405.194 120-479.866q0-74.673 28.339-140.41 28.34-65.737 76.922-114.365 48.582-48.627 114.257-76.993Q405.194-840 479.866-840q74.673 0 140.41 28.339 65.737 28.34 114.365 76.922 48.627 48.582 76.993 114.257Q840-554.806 840-480.134q0 74.673-28.339 140.41-28.34 65.737-76.922 114.365-48.582 48.627-114.257 76.993Q554.806-120 480.134-120ZM480-480Zm0 320q134 0 227-93t93-227q0-134-93-227t-227-93q-134 0-227 93t-93 227q0 134 93 227t227 93Z"/></svg>